<svg version="1" xmlns="http://www.w3.org/2000/svg" width="737.333" height="737.333" viewBox="0 0 553.000000 553.000000"><path d="M238 110.9c-3.4 1.1-9.1 4-11.2 5.8-1.5 1.3-2.3 1.2-7.5-1.3-7.9-3.9-18.4-4.1-25.8-.4-6.6 3.2-21.1 17.8-19.4 19.4.2.2 3-.1 6.2-.7 7.1-1.3 12.9 0 19.1 4.3 4.3 2.9 9.6 9 9.6 10.9 0 .6.3 1.1.8 1.1.4 0 1.3 1.5 2.1 3.2.7 1.8 1.9 4.6 2.6 6.3.7 1.6 1.8 4.9 2.5 7.3.6 2.4 1.3 4.9 1.6 5.7.4.9-.6 1.5-2.8 2-25.9 5.4-54.5 19.2-74.3 35.8-5.9 5-19.8 19-24.3 24.4-5.4 6.5-15.6 22.7-20.2 32.1-8.2 16.4-15.9 42.2-16.3 54.7-.1 4.4 5.8 17.7 13.5 30.3 27.3 44.7 75.4 75.2 127.8 80.9 8.2.9 31.8.9 39-.1 28-3.6 52.7-13 77.4-29.3 16.2-10.7 25-13.8 39.6-13.8 11.5 0 15.6.7 23.8 3.9 10 4 12.7 6 15.3 11.9 1.8 3.9 2.3 7.1 2.4 12.7 0 8.8-2.3 14.4-8.6 21.1-2.1 2.3-3.9 4.3-3.9 4.5 0 .4 11.4-.4 14-1 13-2.6 21.9-9.4 25.6-19.7 1.7-4.7 2.2-15.2 1-20.7-.3-1.9-.8-3.9-.9-4.4-.1-.6 1.6-1.6 3.8-2.2 17.6-4.8 25.7-20.9 21-42l-1.7-7.8-3 5.3c-5.3 9.9-12.5 15.6-20.5 16.3-6.9.7-11.9-1.1-15.8-5.7-5.3-6.2-6.8-11.9-8-29.7-2.7-41.3-19.6-79.4-48-108.5-11-11.3-17.2-16.4-29.5-24.5-14.6-9.6-34.6-18.5-50.5-22.5-1.6-.5-3.4-.9-4-1.1-9.9-2.5-21.5-3.7-37.5-4l-18.5-.3.3-3.8c.8-11.3 7-25.3 13.9-31.3 5.8-5.2 11.5-7.2 19.9-7.2 4.1-.1 7.4-.4 7.4-.7 0-2.2-13.7-13.1-19.6-15.6-4.3-1.8-14.6-2.7-18.4-1.6z"/></svg>